8888888888                888      8888888888                       
888                       888      888                              
888                       888      888                              
8888888  .d88b.   .d88b.  888      8888888 888d888 .d88b.   .d88b.  
888     d8P  Y8b d8P  Y8b 888      888     888P"  d8P  Y8b d8P  Y8b 
888     88888888 88888888 888      888     888    88888888 88888888 
888     Y8b.     Y8b.     888      888     888    Y8b.     Y8b.     
888      "Y8888   "Y8888  888      888     888     "Y8888   "Y8888  


Genre:Action | Comedy | Sci-Fi
Language:English
IMDb: 
http://www.imdb.com/title/tt1409024
Source:Ludi.v.chornom.3.2012.D.HD-TS/ADTRG Thanks!
Encoder:Tony

Format : AVI
Format/Info : Audio Video Interleave
File size : 993 MiB
Duration : 1h 37mn
Overall bit rate : 1 419 Kbps

Video
ID : 0
Format : MPEG-4 Visual
Format profile : Advanced Simple@L5
Format settings, BVOP : 2
Format settings, QPel : No
Format settings, GMC : No warppoints
Format settings, Matrix : Default (H.263)
Muxing mode : Packed bitstream
Codec ID : XVID
Codec ID/Hint : XviD
Duration : 1h 37mn
Bit rate : 1 217 Kbps
Width : 640 pixels
Height : 312 pixels
Display aspect ratio : 2.051
Frame rate : 23.976 fps
Color space : YUV
Chroma subsampling : 4:2:0
Bit depth : 8 bits
Scan type : Progressive
Compression mode : Lossy
Bits/(Pixel*Frame) : 0.254
Stream size : 852 MiB (86%)
Writing library : XviD 64

Audio
ID : 1
Format : AC-3
Format/Info : Audio Coding 3
Mode extension : CM (complete main)
Format settings, Endianness : Big
Codec ID : 2000
Duration : 1h 37mn
Bit rate mode : Constant
Bit rate : 192 Kbps
Channel(s) : 2 channels
Channel positions : Front: L R
Sampling rate : 48.0 KHz
Bit depth : 16 bits
Compression mode : Lossy
Stream size : 134 MiB (14%)
Alignment : Split accross interleaves
Interleave, duration : 42 ms (1.00 video frame)
Interleave, preload duration : 500 ms


Plot:
Agent J travels in time to MIB's early years in the 1960s, to stop an alien from assassinating his friend Agent K and changing history.
Screen Shots:
               
http://img62.imageshack.us/img62/1664/vlcsnap2012060120h18m50.png
 
http://img43.imageshack.us/img43/495/vlcsnap2012060120h19m06.png
 
http://img577.imageshack.us/img577/5940/vlcsnap2012060120h20m05.png
 
http://img818.imageshack.us/img818/2184/vlcsnap2012060120h21m12.png
 
http://img406.imageshack.us/img406/5224/vlcsnap2012060120h22m00.png
 
http://img213.imageshack.us/img213/8517/vlcsnap2012060120h21m53.png


8888888888                888      8888888888                       
888                       888      888                              
888                       888      888                              
8888888  .d88b.   .d88b.  888      8888888 888d888 .d88b.   .d88b.  
888     d8P  Y8b d8P  Y8b 888      888     888P"  d8P  Y8b d8P  Y8b 
888     88888888 88888888 888      888     888    88888888 88888888 
888     Y8b.     Y8b.     888      888     888    Y8b.     Y8b.     
888      "Y8888   "Y8888  888      888     888     "Y8888   "Y8888  